<svg xmlns="http://www.w3.org/2000/svg" width="34.265" height="23.557" viewBox="0 0 34.265 23.557"><defs><style>.a{fill:#fff;}</style></defs><g transform="translate(-1895 115)"><g transform="translate(1895 -115)"><g transform="translate(22.714 4.343)"><path class="a" d="M339.392,152.507l11.552,7.3V144.9Z" transform="translate(-339.392 -144.896)"/></g><g transform="translate(0 4.343)"><path class="a" d="M0,144.9V159.81l11.552-7.3Z" transform="translate(0 -144.896)"/></g><g transform="translate(0.064)"><path class="a" d="M33.019,80H3.037A2.115,2.115,0,0,0,.96,81.822L18.028,93.068,35.1,81.822A2.115,2.115,0,0,0,33.019,80Z" transform="translate(-0.96 -80)"/></g><g transform="translate(0.069 13.246)"><path class="a" d="M21.707,277.922l-3.03,2a1.075,1.075,0,0,1-1.178,0l-3.03-2-13.445,8.5A2.112,2.112,0,0,0,3.1,288.232H33.079a2.112,2.112,0,0,0,2.073-1.807Z" transform="translate(-1.024 -277.92)"/></g></g></g></svg>